<svg xmlns="http://www.w3.org/2000/svg" viewBox="0 0 200 200" width="200" height="200">
  <rect width="200" height="200" fill="#0a0a12"/>
  
  <!-- Heptagon boundary -->
  <path d="M 100.00 55.00 L 135.18 71.94 L 143.87 110.01 L 119.52 140.54 L 80.48 140.54 L 56.13 110.01 L 64.82 71.94 Z" fill="none" stroke="#FF0000" stroke-width="3.50" stroke-linejoin="round" opacity="0.9"/><path d="M 100.00 55.00 L 143.87 110.01 L 80.48 140.54 L 64.82 71.94 L 135.18 71.94 L 119.52 140.54 L 56.13 110.01 Z" fill="none" stroke="#FF0000" stroke-width="1.05" stroke-linejoin="round" opacity="0.2"/><circle cx="100.00" cy="55.00" r="1.75" fill="#FF0000" opacity="0.5"/><circle cx="135.18" cy="71.94" r="1.75" fill="#FF0000" opacity="0.5"/><circle cx="143.87" cy="110.01" r="1.75" fill="#FF0000" opacity="0.5"/><circle cx="119.52" cy="140.54" r="1.75" fill="#FF0000" opacity="0.5"/><circle cx="80.48" cy="140.54" r="1.75" fill="#FF0000" opacity="0.5"/><circle cx="56.13" cy="110.01" r="1.75" fill="#FF0000" opacity="0.5"/><circle cx="64.82" cy="71.94" r="1.75" fill="#FF0000" opacity="0.5"/>
  
  <!-- d-primitive breaking out upward -->
  <circle cx="100" cy="100" r="15.75" fill="none" stroke="#00CC44" stroke-width="3.85"/><line x1="100.00" y1="84.25" x2="100.00" y2="55.00" stroke="#00CC44" stroke-width="3.85" stroke-linecap="round"/>
  
  <!-- Blue 3-ray spark -->
  <line x1="100" y1="100" x2="100.00" y2="65.00" stroke="#3388FF" stroke-width="5.50" stroke-linecap="round"/><line x1="100" y1="100" x2="130.31" y2="117.50" stroke="#3388FF" stroke-width="5.50" stroke-linecap="round"/><line x1="100" y1="100" x2="69.69" y2="117.50" stroke="#3388FF" stroke-width="5.50" stroke-linecap="round"/><circle cx="100" cy="100" r="8.75" fill="#3388FF"/>
</svg>